# xmcd CD database file
#
# Track frame offsets:
#	150
#	12360
#	28592
#	46152
#	63000
#	81708
#	99671
#	119788
#	134335
#	148583
#	171353
#	183078
#	208133
#	222375
#
# Disc length: 3220 seconds
#
# Revision: 1
# Processed by: cddbd v1.5.2PL0 Copyright (c) Steve Scherf et al.
# Submitted via: CDex 1.70beta3
#
DISCID=d20c920e
DTITLE=Kid Down - and The Noble Art of Irony
DYEAR=2007
DGENRE=Rock
TTITLE0=A Kid Called Down
TTITLE1=Cut - Paste
TTITLE2=Who's Your Villain?
TTITLE3=Split This Cake
TTITLE4=Pretty Teeth
TTITLE5=110%
TTITLE6=Lucky Comes Easy
TTITLE7=Nothing More, Just A Lie
TTITLE8=Red Lights
TTITLE9=If you're Sark, Then I'm Vaughn
TTITLE10=On A Line
TTITLE11=Get Up Again Over And Out
TTITLE12=Forget
TTITLE13=Pretty Teeth (Unplugged Session)
EXTD=YEAR: 2007
EXTT0=
EXTT1=
EXTT2=
EXTT3=
EXTT4=
EXTT5=
EXTT6=
EXTT7=
EXTT8=
EXTT9=
EXTT10=
EXTT11=
EXTT12=
EXTT13=
PLAYORDER=
